<svg width="558" height="142" viewBox="0 0 558 142" fill="none" xmlns="http://www.w3.org/2000/svg">
<path d="M165.226 138.174V2.16908H222.203C228.233 2.04889 234.225 3.14414 239.823 5.38953C245.42 7.63491 250.508 10.9845 254.784 15.2385C259.209 19.2497 262.72 24.1666 265.076 29.655C267.433 35.1433 268.581 41.0746 268.442 47.046C268.442 64.3641 246.159 84.9726 231.497 91.2071L227.052 93.1467C227.052 93.1467 228.472 92.9735 221.279 92.9735C219.766 92.9735 215.195 92.9042 215.195 92.9042H195.117V138.174H165.226ZM195.117 66.3614H218.924C230.631 66.3614 238.435 58.9493 238.435 47.4385C238.435 37.0477 231.012 29.4855 221.452 29.4855H195.117V66.3614Z" fill="white"/>
<path d="M407.968 20.5031C396.806 9.41866 382.239 2.41189 366.612 0.610352L356.637 10.5856L346.673 0.610352C330.994 2.43983 316.37 9.43899 305.11 20.5031C291.082 34.1728 284.016 50.752 284.016 70.4599C284.016 90.1679 291.048 106.955 305.087 120.602C316.4 131.559 331.007 138.485 346.65 140.309L356.625 130.334L366.612 140.321C382.281 138.578 396.914 131.635 408.176 120.602C422.226 106.955 429.246 90.1679 429.246 70.4599C429.246 50.752 422.226 34.1613 407.991 20.5031M386.701 101.136C382.839 105.188 378.175 108.39 373.007 110.539C367.839 112.688 362.279 113.736 356.683 113.617C351.072 113.735 345.496 112.706 340.297 110.594C335.098 108.482 330.384 105.33 326.446 101.332C318.26 92.9272 314.15 82.7904 314.15 70.4946C314.053 64.8546 315.091 59.2526 317.203 54.0222C319.316 48.7918 322.459 44.0399 326.446 40.0494C330.393 36.0353 335.101 32.8473 340.293 30.6711C345.485 28.4949 351.059 27.3742 356.689 27.3742C362.319 27.3742 367.892 28.4949 373.085 30.6711C378.277 32.8473 382.984 36.0353 386.932 40.0494C394.846 48.259 399.252 59.2273 399.218 70.6301C399.183 82.033 394.711 92.9744 386.747 101.136" fill="white"/>
<path d="M521.055 114.344H520.951C515.333 114.465 509.751 113.437 504.545 111.322C499.34 109.208 494.621 106.052 490.679 102.048C482.493 93.6549 478.394 83.5758 478.394 71.2107C478.294 65.573 479.33 59.9728 481.44 54.744C483.551 49.5153 486.693 44.7652 490.679 40.7771C494.568 36.6833 499.265 33.4409 504.471 31.2549C509.678 29.0689 515.282 27.9869 520.928 28.0772C522.834 28.0786 524.739 28.1981 526.631 28.4351C526.839 24.348 527.024 20.2609 527.208 16.1623C527.37 12.3639 527.693 8.4731 527.636 4.61694L520.928 11.3133L510.964 1.34961C495.282 3.16965 480.655 10.1702 469.401 21.2423C455.361 34.9005 448.33 51.4797 448.33 71.1876C448.33 90.8956 455.361 107.683 469.401 121.341C480.714 132.298 495.321 139.224 510.964 141.049L519.912 132.101C520.212 126.167 520.604 120.244 521.066 114.321" fill="white"/>
<path d="M504.741 30.0165C504.741 23.5742 502.813 28.7927 512.823 28.7927C523.549 28.7927 531.746 32.2563 537.207 39.3336L557.307 24.1168C546.766 9.281 532.358 1.37241 512.65 1.37241C500.774 1.18898 489.193 5.08036 479.838 12.3983C471.156 19.1523 497.906 7.5261 497.814 19.0484L504.741 30.0165Z" fill="white"/>
<path d="M504.741 112.116C504.741 118.547 502.813 113.328 512.823 113.328C523.549 113.328 531.746 109.865 537.207 102.799L557.307 118.016C546.766 132.84 532.358 140.749 512.65 140.749C500.774 140.932 489.193 137.041 479.838 129.723C471.052 122.969 497.849 134.618 497.756 123.073L504.741 112.116Z" fill="white"/>
<path d="M123.859 20.5031C112.702 9.41874 98.1386 2.41176 82.5149 0.610352L72.5396 10.5856L62.576 0.610352C46.8963 2.43983 32.2725 9.43899 21.0126 20.5031C6.92723 34.1728 0 50.752 0 70.4599C0 90.1679 6.92724 106.909 21.0242 120.602C32.333 131.565 46.9421 138.492 62.5875 140.309L72.5627 130.334L82.5495 140.321C98.2141 138.562 112.842 131.622 124.113 120.602C138.106 106.909 145.125 90.1679 145.125 70.4599C145.125 50.752 138.106 34.1613 123.859 20.5031ZM102.592 101.136C98.7318 105.189 94.0682 108.393 88.8995 110.542C83.7308 112.691 78.1706 113.738 72.5743 113.617C66.9619 113.734 61.3847 112.705 56.1836 110.592C50.9826 108.48 46.267 105.329 42.3254 101.332C34.1282 92.9272 30.0411 82.7904 30.0411 70.4946C29.9389 64.8549 30.9739 59.2525 33.0845 54.0217C35.1951 48.7909 38.3379 44.0389 42.3254 40.0494C46.273 36.0353 50.9802 32.8473 56.1726 30.6711C61.3649 28.4949 66.9386 27.3742 72.5685 27.3742C78.1985 27.3742 83.7721 28.4949 88.9645 30.6711C94.1568 32.8473 98.864 36.0353 102.812 40.0494C110.725 48.259 115.132 59.2273 115.097 70.6301C115.063 82.033 110.59 92.9744 102.627 101.136" fill="white"/>
</svg>
