<svg width="1920" height="1207" viewBox="0 0 1920 1207" fill="none" xmlns="http://www.w3.org/2000/svg">
<path opacity="0.2" d="M-10 173.001C58 63.9998 350.201 -67.7997 471.001 45.0003C622.001 186 689 408.5 932 311.501C1103.48 243.049 1299 -163.499 1512.5 228.501C1683.3 542.101 1871.33 359.168 1944 228.501C2000 145.5 2140 702 1655.5 592C1171 482 1185.72 361.051 1014 440C691 588.5 418 592 224 339C108.688 188.619 55 777.5 471 869C716.24 922.941 915 606.5 1041.5 752.5C1408.44 1176 1614.5 686.434 1736.5 952.5C1788.5 1128 1424 1330.5 1134.5 1107" stroke="white" stroke-width="2" stroke-dasharray="4 4"/>
</svg>
