<svg width="280" height="266" viewBox="0 0 280 266" fill="none" xmlns="http://www.w3.org/2000/svg">
<path opacity="0.4" d="M270.002 108.692C293.898 154.888 265.368 217.114 206.278 247.679C147.189 278.244 79.9167 265.573 56.0211 219.377C32.1256 173.181 5.95265 41.0859 65.0419 10.5211C124.131 -20.0437 246.107 62.4957 270.002 108.692Z" fill="#0194D4"/>
<path opacity="0.4" d="M187.032 243.911C148.04 278.33 80.7407 265.8 36.7152 215.925C-7.31028 166.051 -11.3906 97.7169 27.6015 63.2978C66.5937 28.8786 188.348 -28.6531 232.374 21.2217C276.399 71.0966 226.024 209.491 187.032 243.911Z" fill="#0194D4"/>
<path d="M248.304 56.3399C289.387 88.2343 289.619 156.689 248.823 209.239C208.027 261.788 141.651 278.532 100.568 246.637C59.4849 214.743 -19.7299 105.844 21.0662 53.2944C61.8624 0.745206 207.221 24.4455 248.304 56.3399Z" fill="#0194D4"/>
</svg>
